<svg xmlns="http://www.w3.org/2000/svg">

    <symbol id="arrow" viewBox="0 0 30 15">
        <g>
            <path d="M0.612701 0.527488C1.03706 0.157758 1.57753 -0.0500419 2.17757 0.0103592C2.77761 0.100961 2.96017 0.221763 3.81244 0.966807L15.0001 10.4598L26.2073 0.95674C27.0401 0.211793 27.2494 0.0909904 27.8427 0.0104556C28.4361 -0.0398787 28.9884 0.151392 29.4079 0.551512C29.8275 0.98694 29.9947 1.41182 29.9999 1.92893C30.005 2.44603 29.8193 2.93991 29.438 3.34258L16.5854 14.2651C15.9031 14.9094 15.4316 15 15.0001 15C14.4001 14.9899 13.9968 14.8087 13.4139 14.2651L0.612701 3.39292C0.211079 3.02308 -0.00967957 2.44479 0.000341479 1.92183C0.0204203 1.39888 0.221074 0.89733 0.612701 0.527488Z"/>
        </g>
    </symbol>

    <symbol id="" viewBox="">
        <g>
           
        </g>
    </symbol>

    <symbol id="" viewBox="">
        <g>

        </g>
    </symbol>
   
</svg>
