<svg xmlns="http://www.w3.org/2000/svg">

    <symbol id="logo-name" viewBox="0 0 79 101">
        <g>
            <path d="M71.4145 68.796V76.3947H78V81.4605H71.4145C71.4145 81.4605 71.4145 89.0592 71.4145 91.0855C71.4145 93.1118 72.9342 94.125 74.4539 94.125C75.9737 94.125 78 94.125 78 94.125V100.204C78 100.204 70.9079 100.204 68.8816 100.204C66.8553 100.204 64.3224 98.1776 64.3224 95.6447C64.3224 93.1118 64.3224 81.4605 64.3224 81.4605H60.7763V76.3947H64.3224V68.796H71.4145Z" fill="white"/>
            <path d="M58.75 100.204H51.6579L51.6579 68.796H58.75V100.204Z" fill="white"/>
            <path d="M48.6184 100.204C48.6184 100.204 30.3816 100.204 28.3552 100.204C26.3289 100.204 24.3026 98.1776 24.3026 96.1513C24.3026 94.125 24.3026 91.0855 24.3026 89.0592C24.3026 87.0329 26.3289 85.0065 28.3552 85.0065C28.3552 85.0065 40.0066 85.0065 40.5131 85.0065C41.0197 85.0065 41.0197 81.9671 40.5131 81.9671C40.0066 81.9671 30.3261 81.9671 30.3261 81.9671H26.3289V75.8881H42.5161C44.7436 75.8881 46.2942 76.2448 47.1677 76.958C48.0849 77.6713 48.6184 78.5791 48.6184 79.9408V100.204ZM41.5263 90.0723C41.5263 90.0723 33.4211 90.0723 32.4079 90.0723C31.3947 90.0723 31.3947 95.1381 32.4079 95.1381C33.4211 95.1381 41.5263 95.1381 41.5263 95.1381V90.0723Z" fill="white"/>
            <path d="M22.2763 96.1513C22.2763 96.6579 22.1647 100.204 18.2237 100.204H1V95.1381H15.1842V93.1118C15.1842 93.1118 3.02632 88.046 2.01316 87.5395C1 87.0329 1 86.0197 1 85.5131C0.999999 85.0066 1 81.9671 1 79.9408C1 77.9144 3.5329 75.8881 5.05263 75.8881C6.57237 75.8881 22.2763 75.8881 22.2763 75.8881V81.9671H8.09211V83.9934C8.09211 83.9934 20.25 89.0592 21.2632 89.5658C22.2763 90.0723 22.2763 91.0855 22.2763 91.5921C22.2763 92.0987 22.2763 95.6447 22.2763 96.1513Z" fill="white"/>
            <path d="M56 41H78V63H56V41Z" fill="#FF8B00"/>
            <path d="M23.3746 38.9268C28.8166 36.1029 34.8132 29.4768 39.2892 25.0976C49.2358 15.3658 43.9382 20.4878 51.7225 12.8049C57.8685 6.73896 65.6478 0.0001926 71.6158 9.65754e-05C77.5838 5.50892e-07 77.5838 0 77.5838 0V21.5122C77.5838 21.5122 82.0598 21.5122 75.0971 21.5122C68.1345 21.5122 55.7012 36.878 50.7278 41.4878C45.7545 46.0976 42.7705 49.6829 35.3106 55.3171C27.8506 60.9512 17.9039 63 8.45464 63C0.88005 63 0 63 0 63V42.3167C0 42.3167 7.71667 42.6333 11.8583 42.3167C16 42 18.8333 41.2833 23.3746 38.9268Z" fill="white"/>
        </g>
    </symbol>

    <symbol id="logo" viewBox="0 0 75 86">
        <g>
            <path d="M0 21.5L37.5 0L75 21.5V64.5L37.5 86L0 64.5V21.5Z" fill="#6F50E4"/>
            <path d="M48.0253 49.1141H61.3924V62.4812H48.0253V49.1141Z" fill="#FF8B00"/>
            <path d="M28.2023 47.8544C31.5088 46.1386 35.1523 42.1126 37.8719 39.4518C43.9155 33.5389 40.6966 36.651 45.4263 31.9829C49.1606 28.2972 55.6203 24.2026 59.2658 24.2026C62.9114 24.2026 61.1395 24.2027 61.1395 24.2027V37.2734C61.1395 37.2734 63.8591 37.2734 59.6286 37.2734C55.3982 37.2734 47.8437 46.6096 44.822 49.4104C41.8002 52.2113 39.9872 54.3898 35.4545 57.813C30.9219 61.2363 24.8783 62.4812 19.137 62.4812C14.5347 62.4812 14 62.4812 14 62.4812V49.9141C14 49.9141 18.6886 50.1065 21.2051 49.9141C23.7215 49.7217 25.443 49.2862 28.2023 47.8544Z" fill="white"/>
        </g>
    </symbol>
    
</svg>