<svg width="512" height="512" viewBox="0 0 512 512" fill="none" xmlns="http://www.w3.org/2000/svg">
<path d="M0 93.5914C0 41.9023 41.9023 0 93.5914 0H418.409C470.098 0 512 41.9023 512 93.5914V418.409C512 470.098 470.098 512 418.409 512H93.5914C41.9023 512 0 470.098 0 418.409V93.5914Z" fill="#6149CF"/>
<path d="M346.839 302.796H467.957V423.914H346.839V302.796Z" fill="#FF8B00"/>
<path d="M167.224 291.382C194.604 271.643 230.198 239.356 254.84 215.247C309.6 161.67 280.434 189.868 323.29 147.571C357.126 114.176 399.953 77.0763 432.809 77.0758C465.665 77.0753 465.665 77.0753 465.665 77.0753V195.508C465.665 195.508 490.307 195.508 451.975 195.508C413.643 195.508 345.194 280.103 317.814 305.481C290.434 330.86 274.006 350.598 232.936 381.617C191.866 412.635 137.106 423.914 85.0836 423.914C43.3826 423.914 38.5376 423.914 38.5376 423.914V308.301C38.5376 308.301 90.5596 308.302 104.25 308.301C126.154 308.3 147.833 305.361 167.224 291.382Z" fill="white"/>
</svg>
